<svg id="97d247ba-e697-45aa-bbc4-aafa4e2d94ed" data-name="Layer 1" xmlns="http://www.w3.org/2000/svg" xmlns:xlink="http://www.w3.org/1999/xlink" viewBox="0 0 876.25 1237.21">
  <defs>
    <linearGradient id="b1dab25e-5c34-4209-9901-33986ea45e39" x1="546.52" y1="1538.06" x2="114.55" y2="99.63" gradientUnits="userSpaceOnUse">
      <stop offset="0" stop-color="#5ebe28"/>
      <stop offset="1" stop-color="#5ebe28" stop-opacity="0"/>
    </linearGradient>
    <linearGradient id="332ddb0c-711a-429d-a2fa-5a0ef3d1f561" x1="569.1" y1="1531.28" x2="137.12" y2="92.85" xlink:href="#b1dab25e-5c34-4209-9901-33986ea45e39"/>
    <linearGradient id="9c0cb80b-df3c-4413-8a5f-60754721bcc1" x1="578.31" y1="1528.51" x2="146.33" y2="90.08" xlink:href="#b1dab25e-5c34-4209-9901-33986ea45e39"/>
    <linearGradient id="4db2f6f7-a65f-4ffe-a1a5-ff0eb141c138" x1="584.08" y1="1526.78" x2="152.1" y2="88.35" xlink:href="#b1dab25e-5c34-4209-9901-33986ea45e39"/>
    <linearGradient id="a33cc84f-5951-4621-b33f-bc240412e20d" x1="593.8" y1="1523.86" x2="161.82" y2="85.43" xlink:href="#b1dab25e-5c34-4209-9901-33986ea45e39"/>
    <linearGradient id="7c58b506-224e-41e0-8ecf-0a00834f83d8" x1="576.16" y1="1529.16" x2="144.18" y2="90.73" xlink:href="#b1dab25e-5c34-4209-9901-33986ea45e39"/>
    <linearGradient id="4e46f35b-e9c8-40a0-aa62-d894c604f642" x1="571.32" y1="1530.61" x2="139.34" y2="92.18" xlink:href="#b1dab25e-5c34-4209-9901-33986ea45e39"/>
    <linearGradient id="eb9cbdd5-389b-4a95-99df-a798d4962cac" x1="572.18" y1="1530.35" x2="140.2" y2="91.92" xlink:href="#b1dab25e-5c34-4209-9901-33986ea45e39"/>
    <linearGradient id="8e008765-6efa-49bc-9903-7c68740e5406" x1="572.99" y1="1530.11" x2="141.01" y2="91.68" xlink:href="#b1dab25e-5c34-4209-9901-33986ea45e39"/>
    <linearGradient id="5f5540f4-ec66-435e-bc4b-233cdaef3237" x1="574.72" y1="1529.59" x2="142.75" y2="91.16" xlink:href="#b1dab25e-5c34-4209-9901-33986ea45e39"/>
    <linearGradient id="c1b6c26b-edb6-46b7-8e63-b974e633d1e8" x1="581.73" y1="1527.48" x2="149.75" y2="89.06" xlink:href="#b1dab25e-5c34-4209-9901-33986ea45e39"/>
    <linearGradient id="de58753f-0d30-4543-b22b-170894a5df92" x1="880.14" y1="1437.87" x2="448.17" y2="-0.56" xlink:href="#b1dab25e-5c34-4209-9901-33986ea45e39"/>
    <linearGradient id="c4629d24-9250-45fd-9c07-8a86de043035" x1="913.84" y1="1427.75" x2="481.87" y2="-10.68" xlink:href="#b1dab25e-5c34-4209-9901-33986ea45e39"/>
    <linearGradient id="ef5aeb84-07c3-4e79-bc01-acfd75e5b5a7" x1="926.24" y1="1424.02" x2="494.26" y2="-14.41" xlink:href="#b1dab25e-5c34-4209-9901-33986ea45e39"/>
    <linearGradient id="31ae5c66-55c1-4558-9cc8-d9c90666a709" x1="950.24" y1="1416.82" x2="518.26" y2="-21.61" xlink:href="#b1dab25e-5c34-4209-9901-33986ea45e39"/>
    <linearGradient id="68d7c727-8f7f-427a-b4e1-316ba47303ce" x1="836.83" y1="1450.87" x2="404.85" y2="12.45" xlink:href="#b1dab25e-5c34-4209-9901-33986ea45e39"/>
  </defs>
  <title>palm</title>
  <g>
    <path d="M81.52,640.76c-2.51-6.65-4.83-13.34-6.86-20.1-1.26-4.26-2.4-8.53-3.46-12.81a258.43,258.43,0,0,0,17.4,24.86,380.19,380.19,0,0,1-17.67-39.64q-2.79-7.49-5.23-15a253.83,253.83,0,0,1-.41-60.78l.59-5.15c.21-1.71.49-3.42.74-5.13s.47-3.43.79-5.13l.92-5.1.46-2.55.53-2.54,1-5.08c.79-3.37,1.55-6.74,2.42-10.09A351.42,351.42,0,0,1,85.6,436.92c2.52-6.47,5.22-12.89,8-19.27s5.87-12.66,9-18.9,6.39-12.47,9.77-18.64,6.89-12.28,10.47-18.41l5.39-9.24c.92-1.61,1.77-3,2.64-4.37l1.29-2.12,1.41-2.11c1.82-2.83,3.83-5.64,5.81-8.46s4.09-5.61,6.18-8.42C154,315.71,163,304.65,171.9,293.52l54.37-66.7c4.56-5.56,9-11.18,13.55-16.78s9-11.2,13.48-16.85l13.5-16.8,13.42-16.89c8.9-11.31,17.76-22.64,26.5-34.1s17.4-23,25.88-34.69q-15.84,14.75-31.27,29.9c-10.31,10.07-20.5,20.27-30.65,30.49S250.45,171.64,240.47,182q-7.47,7.8-14.83,15.68c-4.92,5.26-9.88,10.47-14.75,15.77l-14.65,15.86c-4.88,5.29-9.69,10.65-14.53,16q-14.53,16-28.69,32.43-7.12,8.19-14.05,16.61t-13.76,17.09c-4.51,5.84-8.91,11.79-13.14,18.15L110.48,332l-1.54,2.46c-1,1.65-2.09,3.34-3,4.84l-5.54,9.35c-7.31,12.59-14.35,25.52-20.82,38.78a413.77,413.77,0,0,0-17.14,41,330.17,330.17,0,0,0-12,43c0-1.13.07-2.25.14-3.37.24-7,.81-14,1.54-21,.45-3.48.73-7,1.26-10.43l.77-5.2c.24-1.73.51-3.46.84-5.18a346.67,346.67,0,0,1,9.67-40.85c.49-1.68,1-3.38,1.56-5.08l1.56-4.92,1.66-4.73,1.83-4.68a196.36,196.36,0,0,1,8.82-18.45,399.65,399.65,0,0,1,21.87-36c1-1.49,2-2.95,3-4.41l3-4.39c2-2.92,4-5.88,6.12-8.76l6.31-8.65,3.16-4.33c1.05-1.44,2.16-2.86,3.23-4.3l6.46-8.59c2.15-2.86,4.3-5.73,6.55-8.54l13.3-17c17.89-22.55,36.44-44.69,55-66.89s37.47-44.12,56.44-66.06L293,76.74q14.34-16.42,28.56-33Q304.47,57.3,288,71.63c-11,9.53-21.85,19.28-32.57,29.16C234,120.58,213.21,141.07,193,162.05c-10,10.62-20.18,21.07-29.88,32l-7.36,8.12c-2.45,2.71-4.91,5.41-7.28,8.19L134.09,227c-4.76,5.58-9.36,11.29-14,16.95-2.34,2.81-4.61,5.7-6.88,8.59l-6.81,8.67c-2.31,2.86-4.48,5.83-6.67,8.8l-6.58,8.89c-2.2,2.95-4.27,6-6.42,9l-3.19,4.54c-1.07,1.51-2.13,3-3.14,4.59l-6.1,9.33c-1,1.54-2,3.15-3,4.75l-2.92,4.79c-1,1.6-2,3.17-2.9,4.81l-2.79,4.92-2.77,4.92-2.62,5.06a218.1,218.1,0,0,0-9.49,21.05l-2,5.5L44,367.75c-.53,1.83-1.12,3.72-1.6,5.5s-1,3.56-1.46,5.38c-1,3.61-1.84,7.27-2.72,10.92s-1.67,7.33-2.35,11l-1.07,5.54-.91,5.57c-.64,3.7-1.07,7.45-1.56,11.17-.27,1.86-.46,3.73-.63,5.61l-.55,5.61c-.21,1.86-.3,3.74-.43,5.62l-.34,5.62c-.31,7.51-.44,15-.22,22.52,0,3.75.25,7.5.51,11.24l.37,5.61c.17,1.86.39,3.73.58,5.59l.61,5.58.31,2.79.43,2.78,1.76,11.07c1.56,7.32,2.91,14.66,5,21.83,1,3.59,1.88,7.2,3,10.74s2.27,7.08,3.48,10.58c.08.21.16.42.23.63q1.14,9.24,3,18.35-4.6-10.29-8.58-20.77a332.34,332.34,0,0,1-12.47-41.25c-1.63-7-3-14-4.05-21-1.28-7-2-14.09-2.77-21.13l-.76-10.6c-.17-1.76-.21-3.53-.26-5.3l-.16-5.31c0-1.77-.16-3.53-.13-5.3l.07-5.3,0-5.29c0-1.77.15-3.53.22-5.29.18-3.53.25-7.05.61-10.56l.45-5.27.22-2.63.32-2.63c.77-7,1.72-14,3-20.9a343.87,343.87,0,0,1,9.88-41l1.61-5.1,1.68-5L40,330c.58-1.65,1.06-3.34,1.74-4.95l3.83-9.75c.32-.81.62-1.64,1-2.43l1.08-2.39,2.15-4.76a273.91,273.91,0,0,1,19.91-36.79,363.1,363.1,0,0,1,24.66-34.28c8.88-11.08,18.27-21.84,28-32.49S142,181,152,170.46L167,154.64l7.48-7.86,7.55-7.75q30.35-30.9,63.13-59.6c10.9-9.58,22-19,33.23-28.26s22.68-18.35,34.17-27.46q-19.52,10.13-38.35,21.58t-36.9,24.14A752.46,752.46,0,0,0,168,124.27l-8.21,7.44-8.1,7.51c-5.34,5-10.62,10-15.92,15.1-10.64,10.05-21.09,20.42-31.43,31l-7.69,8c-2.54,2.71-5,5.49-7.53,8.23l-3.75,4.13-3.67,4.24-3.67,4.24c-1.23,1.4-2.45,2.82-3.62,4.29l-7.07,8.78c-2.31,3-4.53,6-6.8,9s-4.41,6.14-6.56,9.26-4.33,6.21-6.3,9.47A292.49,292.49,0,0,0,26.27,295.3L24,300.56l-1.11,2.62c-.37.88-.67,1.79-1,2.67L18,316.56c-.7,1.78-1.19,3.61-1.78,5.41l-1.7,5.44-1.69,5.43-1.5,5.4a323.1,323.1,0,0,0-8.85,44.43Q1,393.92.41,405.25l-.16,2.83-.07,2.83-.12,5.66c-.14,3.77,0,7.55.05,11.32.05,1.88,0,3.77.13,5.65l.36,5.65L1,444.83c.11,1.88.38,3.75.56,5.62l.61,5.61c.2,1.87.39,3.74.71,5.6L4.61,472.8c.71,3.69,1.53,7.36,2.28,11s1.71,7.3,2.68,10.92c1.88,7.25,4,14.41,6.53,21.44a271.4,271.4,0,0,0,35.49,68.23c1.57,6.48,3.4,12.9,5.5,19.2A237.91,237.91,0,0,0,99.6,679.71c-3.4-6.37-6.74-12.74-9.71-19.26S84.05,647.4,81.52,640.76Z" style="fill: url(#b1dab25e-5c34-4209-9901-33986ea45e39)"/>
    <path d="M171.91,461.76q10.18-16,21.05-31.75l5.36-7.93,5.46-7.88,5.46-7.88c1.84-2.62,3.7-5.23,5.51-7.87,7.25-10.55,14.72-21,22-31.52L281,303.83q22-31.62,44-63.38c7.27-10.63,14.57-21.24,21.77-31.94s14.42-21.4,21.41-32.3c-9.23,9.08-18.2,18.38-27,27.8s-17.54,19-26.14,28.59q-25.77,28.92-50.23,59l-12.18,15c-4,5-8,10.12-12,15.19-8,10.12-15.81,20.4-23.62,30.68-3.92,5.12-7.74,10.33-11.58,15.52s-7.67,10.39-11.46,15.63-7.54,10.5-11.26,15.8L177,407.36l-5.52,8q-10.95,16.08-21.34,32.76l-5.07,8.43-4.93,8.56c-1.67,2.83-3.2,5.8-4.79,8.7-.78,1.46-1.6,2.89-2.34,4.39l-2.23,4.47a265.17,265.17,0,0,0-15.29,37.24A297.67,297.67,0,0,0,106,558.7a311,311,0,0,0-4.68,39.35q-.84,14.61-.44,29.19c0-.51-.07-1-.1-1.53-.72-13.76-1.21-27.47-.76-41.14.2-13.67,1.41-27.26,2.94-40.75l1.35-10.08c.5-3.35,1.13-6.68,1.68-10s1.24-6.65,1.89-10l1-5,1.15-4.93a348.36,348.36,0,0,1,11.4-38.73,309.8,309.8,0,0,1,15.86-36.88,388.44,388.44,0,0,1,20.17-35.1c7.25-11.51,15-22.83,23-34.13s16.09-22.56,24.17-33.89,16.2-22.57,24.36-33.75l6.19-8.35,6.23-8.3q3.09-4.19,6.25-8.3c2.1-2.75,4.17-5.53,6.31-8.26l6.35-8.23,6.39-8.2c2.12-2.75,4.28-5.46,6.45-8.17l6.46-8.16q6.51-8.13,13.09-16.21c4.34-5.42,8.82-10.74,13.23-16.12q13.32-16.07,26.9-32l27.28-31.88c-44.11,34.63-84.56,73.91-121.87,116-2.35,2.62-4.62,5.3-6.94,7.94s-4.61,5.31-6.88,8c-4.58,5.34-9,10.79-13.5,16.22-8.94,10.88-17.53,22.07-26,33.09-4.28,5.54-8.5,11.1-12.71,16.73s-8.39,11.26-12.57,16.92c-8.26,11.42-16.33,23.08-24.06,35.11a400.15,400.15,0,0,0-21.23,37.62,313.25,313.25,0,0,0-16.22,40.37,322.86,322.86,0,0,0-10.49,42,338.29,338.29,0,0,0-5,42.83l-.17,2.68-.08,2.69-.13,5.37c-.07,3.58-.2,7.16-.08,10.73l.19,10.72c.09,3.57.41,7.13.62,10.69.35,7.12,1.2,14.2,2,21.27.34,3.54.95,7,1.5,10.55l1.67,10.51c.63,3.49,1.42,7,2.13,10.42s1.41,6.93,2.22,10.37l2.69,10.25c.92,3.41,1.76,6.83,2.8,10.2,2.14,6.73,4.24,13.44,6.53,20.08,2.56,6.57,5,13.14,7.63,19.63q-1.84-9.36-3.49-18.73,2.74,12.53,6.49,24.73c-1-12.91-1.69-25.75-1.89-38.54s.07-25.53.9-38.18l.72-9.47c.27-3.15.65-6.29,1-9.43s.76-6.26,1.16-9.39l.61-4.68c.23-1.55.5-3.1.75-4.66.54-3.1,1-6.21,1.57-9.29l1.78-9.24c.63-3.07,1.38-6.11,2.07-9.16l1-4.57,1.19-4.54,1.18-4.53c.39-1.51.77-3,1.25-4.52l2.71-9c.88-3,1.92-5.91,2.86-8.87s2.07-5.82,3.16-8.7A280.52,280.52,0,0,1,152.68,494C158.63,483.15,165,472.36,171.91,461.76Z" style="fill: url(#332ddb0c-711a-429d-a2fa-5a0ef3d1f561)"/>
    <path d="M178.38,608.62c.88-2.87,1.88-5.74,2.81-8.6l3.1-8.56c4.35-11.37,9.2-22.67,14.35-33.86,2.67-5.57,5.15-11.21,7.93-16.75l4.08-8.34c1.38-2.78,2.82-5.53,4.23-8.29l4.19-8.32,4.33-8.26c2.89-5.5,5.76-11,8.78-16.47s5.85-11,8.88-16.45l9.08-16.37c3-5.48,6.12-10.89,9.18-16.34l9.25-16.31,18.66-32.59,18.86-32.51,38.08-65,19.07-32.58c6.33-10.89,12.71-21.78,18.86-32.84q-12.75,14.07-24.77,28.71c-8.08,9.72-15.92,19.62-23.69,29.58q-23.22,30-44.74,61.17t-41.48,63.46c-3.41,5.33-6.61,10.79-9.86,16.22s-6.54,10.83-9.7,16.32l-9.4,16.52c-3.12,5.52-6.12,11.12-9.18,16.67s-5.92,11.24-8.84,16.89l-4.35,8.48-4.22,8.58c-1.37,2.87-2.78,5.72-4.13,8.61l-4,8.71c-2.7,5.78-5.22,11.68-7.71,17.58-4.84,11.88-9.56,23.86-13.42,36.27l-2.8,9.36-1.27,4.74c-.42,1.58-.86,3.15-1.21,4.76-1.54,6.37-2.79,12.85-3.82,19.19-8.39,50.79-7.2,102.94,4.58,152.18-.1-12.66-.07-25.23.38-37.75s1.26-25,2.53-37.32l1-9.26c.34-3.08.79-6.15,1.18-9.22s.89-6.13,1.32-9.19,1-6.11,1.49-9.15c2.11-12.17,4.53-24.25,7.54-36.18.69-3,1.46-5.94,2.26-8.85l1.24-4.35Z" style="fill: url(#9c0cb80b-df3c-4413-8a5f-60754721bcc1)"/>
    <path d="M196,697.94l1.69-8.71c.53-2.91,1.24-5.78,1.88-8.67s1.22-5.77,2-8.63c5.7-22.87,12.65-45.44,21.75-66.9,4.55-10.75,9.48-21.35,15-31.8s11.1-20.93,17-31.36C278.8,500,302.53,458,326.07,415.9q17.61-31.62,35-63.41c5.76-10.64,11.54-21.26,17.22-32s11.35-21.42,16.77-32.31c-7.83,9.31-15.4,18.8-22.82,28.4s-14.72,19.29-21.9,29.06Q328.85,375,308.69,405.26q-40.4,60.5-76.16,123.91c-5.92,10.65-11.74,21.44-17.25,32.52s-10.53,22.52-14.93,34.21a330.92,330.92,0,0,0-11.25,35.65l-2.27,9c-.4,1.5-.7,3-1,4.54l-1,4.55c-1.34,6.05-2.31,12.18-3.37,18.28-.28,1.52-.5,3-.71,4.59l-.62,4.6c-.39,3.06-.85,6.12-1.11,9.2l-.93,9.22c-.28,3.08-.41,6.16-.62,9.24l-.28,4.62L177,714c-.08,3.08-.26,6.15-.24,9.23l0,9.23c0,3.07.15,6.14.24,9.21a357.3,357.3,0,0,0,10,72.5c-.08-12.17,0-24.25.37-36.28s1.2-24,2.36-35.86,2.7-23.68,4.62-35.38Z" style="fill: url(#4db2f6f7-a65f-4ffe-a1a5-ff0eb141c138)"/>
    <path d="M204.69,761.73l2.55-8.05c1.71-5.36,3.39-10.73,5.16-16.06q10.38-32,21.78-63.55c7.72-21,15.54-41.85,24.17-62.39,8.37-20.65,17.32-41,26.64-61.25l7-15.15c2.35-5,4.92-10,7.31-15,4.7-10.1,10-19.89,14.92-29.9,5.21-9.84,10.29-19.76,15.66-29.54s10.78-19.54,16.19-29.32q16.57-29.13,34.18-57.85c3-4.78,5.85-9.6,8.84-14.36L398.05,345c3-4.74,6-9.53,9-14.33s6.08-9.54,9-14.41c-4.09,3.93-8.09,8-12.1,12s-7.81,8.22-11.68,12.38S384.76,349,381,353.28c-1.91,2.11-3.71,4.3-5.54,6.47l-5.49,6.52c-14.49,17.5-28.15,35.71-41.11,54.44l-9.49,14.2c-1.6,2.36-3.14,4.75-4.64,7.17l-4.53,7.24c-6.19,9.58-11.76,19.52-17.56,29.34-11.13,19.9-21.66,40.15-31.21,60.87-2.48,5.14-4.67,10.41-7,15.63L251,563c-1.13,2.62-2.32,5.21-3.35,7.87l-6.31,15.9c-2.14,5.29-4.11,10.64-6,16l-5.75,16.11c-1.82,5.4-3.64,10.8-5.31,16.25l-2.55,8.15-2.45,8.19c-1.61,5.46-3.09,11-4.61,16.45-5.87,22-10.86,44.23-14.69,66.64-1.88,11.21-3.6,22.43-4.91,33.72s-2.4,22.57-3,33.92c3.44-10.83,6.73-21.64,10.07-32.41Z" style="fill: url(#a33cc84f-5951-4621-b33f-bc240412e20d)"/>
    <path d="M225.09,907.91q1.64-9.4,3.58-18.71l2-9.29,2.16-9.24,2.33-9.19c.75-3.06,1.65-6.09,2.46-9.14s1.72-6.07,2.63-9.09,1.76-6,2.75-9l2.88-9,3.12-8.88c.54-1.48,1-3,1.56-4.45l1.66-4.4c1.13-2.92,2.15-5.88,3.37-8.77q7-17.46,15.18-34.38c1.4-2.81,2.74-5.63,4.16-8.44l4.28-8.39c3-5.56,5.91-11.11,9-16.62,6.1-11.07,12.49-22,19-33.07s13-22.16,19.4-33.41,12.64-22.58,18.67-34,12-22.93,17.68-34.53q4.29-8.7,8.49-17.44c2.73-5.86,5.5-11.7,8.19-17.57q16.13-35.28,30.17-71.4,7-18.09,13.34-36.38c2.11-6.1,4.19-12.21,6.19-18.36s3.91-12.31,5.74-18.51c-3.2,5.63-6.27,11.3-9.34,17l-9.19,17-18.29,34q-18.28,33.92-36.8,67.54c-6.19,11.2-12.46,22.35-18.7,33.51s-12.57,22.26-19,33.3l-9.6,16.58c-3.23,5.51-6.45,11-9.73,16.5l-19.63,33.11c-6.5,11.15-12.95,22.44-19.14,34s-12,23.29-17.3,35.37c-5.07,11.47-9.66,23.19-13.71,35.07,2.4-8.24,4.92-16.44,7.66-24.57,4.09-12.39,8.55-24.61,13.49-36.59s10.22-23.83,16-35.55,11.71-23.49,17.83-35.22L308,621.8,317.07,604c3-5.94,6-11.86,9-17.83,5.93-11.92,11.91-23.81,17.72-35.79l8.76-17.95,8.64-18q17.16-36.07,33.58-72.54c5.43-12.17,10.82-24.37,16.05-36.65s10.41-24.58,15.29-37c-7.44,11.13-14.61,22.4-21.68,33.71s-14,22.69-20.93,34.1q-20.64,34.25-40.36,69l-9.85,17.36-9.73,17.43c-6.52,11.6-12.87,23.29-19.26,35-12.68,23.4-25.29,46.75-37.7,70.46-6.12,11.89-12.17,23.89-17.94,36.14S237.56,706.15,232.83,719c-2.38,6.4-4.56,12.86-6.67,19.34-1,3.23-2,6.48-3,9.73l-2.74,9.81c-1.89,6.52-3.45,13.12-5.08,19.7l-.6,2.47-.53,2.49-1.06,5c-.68,3.32-1.46,6.62-2.05,9.95-1.26,6.66-2.49,13.32-3.44,20-.48,3.34-1.07,6.67-1.46,10l-1.24,10.06c-1.45,13.44-2.5,26.89-2.93,40.36s-.33,26.91.34,40.32,1.85,26.76,3.76,40c1-13.35,2.06-26.61,3.49-39.81q1.95-18,4.61-35.78-1.23,11.93-1.81,23.89a397.48,397.48,0,0,0,3.71,77.7c1-12.9,2-25.71,3.49-38.43S222.87,920.43,225.09,907.91Z" style="fill: url(#7c58b506-224e-41e0-8ecf-0a00834f83d8)"/>
    <path d="M244,906.79l1.5-4.4,2.95-8.78.74-2.2.82-2.17,1.63-4.33c1.11-2.88,2.16-5.77,3.23-8.66l3.5-8.55,1.76-4.27.88-2.14.95-2.1c2.56-5.61,4.87-11.3,7.64-16.8l4-8.31,4.2-8.23c2.73-5.52,5.79-10.89,8.71-16.31.72-1.36,1.5-2.7,2.28-4l2.28-4c1.54-2.68,3-5.39,4.61-8.05,3.16-5.33,6.29-10.67,9.59-15.95,6.41-10.65,13.11-21.22,19.82-31.83s13.41-21.35,20-32.21c3.26-5.45,6.53-10.91,9.71-16.41s6.37-11,9.46-16.56c6.13-11.14,12.23-22.29,17.94-33.64q4.35-8.48,8.53-17c2.8-5.7,5.47-11.46,8.2-17.19Q415,578,428.44,542.44l3.29-8.92c1.09-3,2.21-5.93,3.22-8.94,2.06-6,4.21-12,6.15-18s3.9-12,5.75-18.11,3.59-12.15,5.25-18.27c-3,5.57-6,11.18-8.87,16.79l-8.77,16.79c-5.87,11.16-11.69,22.32-17.61,33.42-11.81,22.21-23.75,44.27-36.06,66.08-3.1,5.44-6.13,10.92-9.28,16.32s-6.19,10.87-9.38,16.25q-9.47,16.2-19.15,32.23c-12.93,21.4-26.33,42.36-39.9,63.69-6.69,10.73-13.4,21.5-19.87,32.51S270.55,786.54,264.7,798c-2.82,5.79-5.77,11.5-8.39,17.4-1.33,2.93-2.71,5.84-4,8.79l-3.7,9-1.85,4.47c-.62,1.49-1.15,3-1.73,4.52l-3.39,9.06-.83,2.27-.76,2.3-1.51,4.6-3,9.19-2.66,9.3-1.31,4.65-.64,2.33-.56,2.35-2.26,9.38L227,902.24c-.34,1.57-.62,3.15-.93,4.73l-1.82,9.45c-.3,1.58-.63,3.15-.89,4.73l-.76,4.75q-1.49,9.5-2.55,19c-.67,6.36-1.24,12.72-1.64,19.09s-.68,12.74-.73,19.11a347.71,347.71,0,0,0,1.43,38.08c1.69-12.57,3.56-25,5.78-37.38s4.79-24.59,7.75-36.7,6.31-24.08,10-35.91C243.07,909.74,243.49,908.26,244,906.79Z" style="fill: url(#4e46f35b-e9c8-40a0-aa62-d894c604f642)"/>
    <path d="M282.92,909.12q3.78-7.65,7.87-15.14c2.69-5,5.49-9.94,8.35-15.1,5.76-10.21,11.19-20.54,16.7-30.83s10.77-20.69,16.12-31l15.69-31.24q31-62.64,59.17-126.61c9.36-21.35,18.51-42.79,27.29-64.41,4.37-10.82,8.7-21.66,12.88-32.58s8.29-21.86,12.11-32.95C452.69,539,446.56,549,440.52,559s-12,20.07-17.83,30.16c-11.69,20.19-23,40.57-34.16,61q-33.31,61.44-64.17,124.05L309,805.55l-15.16,31.39-15,31.39c-2.47,5.19-5.12,10.55-7.56,16s-4.76,10.94-7,16.47A391.18,391.18,0,0,0,244,969c-2.29,11.61-4.07,23.3-5.24,35a314,314,0,0,0-1.63,35.2c2.74-11.41,5.58-22.7,8.75-33.85s6.63-22.17,10.45-33A536,536,0,0,1,282.92,909.12Z" style="fill: url(#eb9cbdd5-389b-4a95-99df-a798d4962cac)"/>
    <path d="M295,952c1.28-2.3,2.61-4.58,3.91-6.86l4-6.8c2.7-4.5,5.47-9,8.35-13.33s5.75-8.73,8.79-13c1.53-2.17,3.11-4.5,4.66-6.79s3.06-4.61,4.54-6.93c3-4.64,5.83-9.32,8.71-14,5.62-9.38,11-18.88,16.24-28.39s10.22-19.17,15.2-28.8c19.69-38.63,37.55-78,54.11-117.93,2.1-5,4.1-10,6.14-15s4-10,6-15.07q5.93-15.09,11.55-30.3c7.46-20.3,14.6-40.74,20.88-61.54-5.74,9.23-11.2,18.59-16.57,28S440.86,634,435.65,643.47s-10.36,18.94-15.43,28.45c-2.57,4.74-5.05,9.53-7.58,14.28s-5.08,9.5-7.54,14.29c-20,38.17-39.32,76.56-58.8,114.73q-7.28,14.32-14.71,28.52c-2.42,4.77-4.94,9.46-7.42,14.18s-5.09,9.34-7.56,14.05-5.08,9.31-7.73,13.85l-2,3.43-2,3.38c-1.33,2.26-2.62,4.49-4.05,6.83-2.84,4.7-5.66,9.51-8.32,14.37s-5.16,9.82-7.59,14.79c-1.21,2.49-2.4,5-3.54,7.5s-2.25,5-3.33,7.59-2.16,5.08-3.17,7.65-2,5.13-3,7.72-1.89,5.18-2.79,7.78-1.77,5.22-2.61,7.83l-2.38,7.91c-.78,2.63-1.49,5.29-2.2,7.94a309,309,0,0,0-6.73,32.15,267.46,267.46,0,0,0-3.14,32.52c3.21-10.39,6.53-20.64,10.16-30.74,1.84-5,3.69-10.05,5.67-15s3.95-9.9,6.12-14.76c4.18-9.77,8.72-19.35,13.54-28.75C290,961.27,292.49,956.6,295,952Z" style="fill: url(#8e008765-6efa-49bc-9903-7c68740e5406)"/>
    <path d="M343.6,948.62c4.69-8.81,9.24-17.7,14-26.49l7-13.23,7.08-13.21,14.11-26.54c4.64-8.9,9.34-17.87,13.87-26.91q3.38-6.79,6.68-13.62t6.53-13.69c4.24-9.18,8.49-18.35,12.46-27.65s7.95-18.58,11.72-28c7.53-18.76,14.58-37.71,21-56.87q4.82-14.38,9.13-28.93c2.89-9.69,5.58-19.45,8-29.31-5.07,8.8-9.84,17.69-14.62,26.57l-7.12,13.33-7,13.35-27.81,53.35L390.8,804c-4.69,8.82-9.22,17.72-14,26.5s-9.31,17.65-14.06,26.5-9.33,17.84-13.92,26.84-9,18.08-13.34,27.23-8.57,18.34-12.59,27.63c-2,4.65-4.06,9.27-6,13.94s-3.86,9.35-5.74,14.05c-7.51,18.8-14.49,37.79-20.75,57-3.1,9.63-6.09,19.29-8.83,29s-5.32,19.53-7.51,29.44c4.91-8.89,9.59-17.83,14.25-26.77l13.89-26.8,27.54-53.43Z" style="fill: url(#5f5540f4-ec66-435e-bc4b-233cdaef3237)"/>
    <path d="M416.43,938.85q19.72-43.56,36.74-88.35c5.63-14.94,11.07-30,16.13-45.15,2.51-7.6,5-15.22,7.29-22.91s4.57-15.39,6.51-23.23c-4.59,6.68-8.89,13.48-13.1,20.32s-8.29,13.73-12.32,20.65c-8,13.85-15.65,27.86-23.09,42l-3.07,5.9q3.06-7.54,6.06-15.12l5-12.63,4.87-12.68c6.42-17,12.64-34,18.49-51.19,2.9-8.6,5.77-17.23,8.47-25.93s5.36-17.41,7.7-26.27c-5,7.69-9.68,15.5-14.29,23.35s-9.08,15.77-13.51,23.7c-8.81,15.89-17.25,31.94-25.49,48.08q-24.6,48.48-46.56,98.11T340.77,997.82c-6.43,16.94-12.65,34-18.5,51.18-2.9,8.61-5.77,17.23-8.48,25.93s-5.35,17.42-7.69,26.28c5-7.68,9.7-15.49,14.32-23.34s9.1-15.76,13.53-23.69c7.8-14,15.31-28.24,22.64-42.49-.53,1.31-1.07,2.62-1.59,3.94-5.9,14.81-11.61,29.7-17,44.76-2.67,7.54-5.32,15.1-7.81,22.73s-4.94,15.29-7.09,23.09c4.77-6.54,9.25-13.22,13.63-20s8.62-13.54,12.8-20.36c8.33-13.68,16.26-27.56,24-41.55Q396.47,982.34,416.43,938.85Z" style="fill: url(#c1b6c26b-edb6-46b7-8e63-b974e633d1e8)"/>
    <path d="M778.77,707.67c-.45-1.46-1-2.89-1.44-4.35-.25-.72-.48-1.45-.74-2.16l-.83-2.13a173.3,173.3,0,0,0-16.65-31.93l-2.44-3.73-2.52-3.65-2.54-3.64-2.6-3.57L746.37,649l-2.71-3.47L740.94,642l-2.77-3.4c-7.36-9.09-15.12-17.77-23-26.25-1.95-2.15-4-4.22-6-6.31s-4-4.17-6-6.22l-6.08-6.17-6.13-6.09c-8.25-8.06-16.6-16-25-23.79-4.25-3.86-8.48-7.75-12.75-11.57s-8.51-7.69-12.83-11.46-8.64-7.54-13-11.27-8.65-7.5-13-11.17c-8.75-7.38-17.51-14.74-26.41-21.94-4.44-3.61-8.87-7.23-13.35-10.8L561.09,475q-27-21.18-54.93-41.27C496.83,427,487.47,420.42,478,414s-19.07-12.75-28.86-18.8c8,8.29,16.13,16.35,24.3,24.38s16.4,16,24.64,23.87c16.5,15.81,33.15,31.41,49.81,47l12.52,11.64,12.56,11.6,25.13,23.13c8.37,7.72,16.83,15.32,25.16,23.06s16.77,15.31,25.07,23l12.48,11.53c4.11,3.88,8.27,7.74,12.34,11.65,8.29,7.69,16.32,15.6,24.35,23.47,16,15.81,31.44,32,44.93,49.31,3.36,4.34,6.53,8.76,9.57,13.25s5.77,9.14,8.2,13.88l.94,1.78c.31.59.57,1.2.86,1.8.56,1.2,1.15,2.4,1.69,3.62,1,2.44,2.05,4.9,2.89,7.4a88,88,0,0,1,4,15.39,106.66,106.66,0,0,1,.34,32.57,142,142,0,0,1-8.82,32.65,112.35,112.35,0,0,0,15.88-31,110,110,0,0,0,4.17-17.33,106.66,106.66,0,0,0,1.15-18.09,99.17,99.17,0,0,0-2.23-18.22C780.49,713.55,779.6,710.63,778.77,707.67Z" style="fill: url(#de58753f-0d30-4543-b22b-170894a5df92)"/>
    <path d="M807.61,573.39c-.43-1.33-.9-2.65-1.36-4s-1-2.6-1.54-3.91l-3.13-7.82-.79-2-.92-1.9L798,550c-1.26-2.52-2.43-5.1-3.77-7.59s-2.82-4.9-4.24-7.35l-2.15-3.68-2.35-3.54c-1.58-2.35-3.14-4.73-4.76-7.07s-3.44-4.51-5.17-6.77c-3.37-4.6-7.21-8.78-11-13.07-.92-1.09-1.92-2.08-2.91-3.1l-3-3-3-3.05-1.5-1.52-1.55-1.45c-4.15-3.83-8.29-7.72-12.65-11.28-2.16-1.8-4.28-3.68-6.49-5.42s-4.44-3.43-6.66-5.15-4.48-3.38-6.75-5L713.38,457c-9.17-6.32-18.49-12.37-27.84-18.17-4.69-2.91-9.4-5.72-14.1-8.53L657.34,422Q600.9,389,543.07,358.4c-19.3-10.14-38.72-20.09-58.35-29.69-9.82-4.78-19.66-9.52-29.59-14.12s-19.9-9.13-30-13.38c8.68,6.75,17.51,13.22,26.4,19.61s17.83,12.66,26.82,18.87q27,18.6,54.48,36.3,55,35.47,111.41,68.42c9.4,5.46,18.81,10.88,28,16.41,4.68,2.7,9.25,5.48,13.83,8.26s9,5.69,13.6,8.45c17.88,11.49,35,23.75,50.45,37.84,3.7,3.66,7.69,7.1,11.17,11,1.78,1.91,3.63,3.77,5.38,5.71s3.38,4,5.09,6l2.56,3,2.37,3.13c1.58,2.09,3.15,4.2,4.77,6.28s3,4.34,4.45,6.52l2.22,3.29,1.11,1.65,1,1.71c11.32,18,20,37.77,26.86,58.63a181,181,0,0,0-4.89-32.75C810.93,584.05,809.36,578.7,807.61,573.39Z" style="fill: url(#c4629d24-9250-45fd-9c07-8a86de043035)"/>
    <path d="M818.34,528.63c-.61-2.89-1.19-5.81-2-8.69-.37-1.44-.71-2.89-1.1-4.33l-1.24-4.3c-.38-1.44-.87-2.85-1.34-4.27l-1.43-4.26-1.56-4.21-.79-2.11-.86-2.08-1.74-4.16c-.6-1.38-1.3-2.71-1.94-4.07l-4-8.14c-3-5.23-5.9-10.59-9.43-15.54-3.27-5.14-7.11-9.86-10.87-14.66-4-4.54-8-9.2-12.38-13.4l-3.24-3.22c-1.09-1.07-2.25-2-3.37-3.05-2.28-2-4.5-4.07-6.83-6l-7-5.69c-1.16-1-2.39-1.84-3.6-2.72L740,411.08l-3.65-2.65-3.71-2.5c-2.49-1.65-4.94-3.39-7.46-5s-5-3.17-7.55-4.72-5.09-3-7.64-4.5l-3.82-2.23-3.84-2.15c-2.57-1.43-5.13-2.89-7.69-4.28-10.31-5.53-20.63-10.82-30.9-16.08q-61.66-31.27-124.31-60.69c-20.92-9.74-41.93-19.32-63.12-28.57-10.6-4.62-21.22-9.19-31.92-13.63S423,255.3,412.1,251.21c9.54,6.65,19.22,13,28.95,19.29s19.54,12.42,29.38,18.51c19.69,12.14,39.59,23.88,59.62,35.39Q590.2,358.84,652,390.18c10.3,5.19,20.55,10.34,30.64,15.6s20,10.56,29.66,16.2,18.94,11.67,27.8,18.15c2.23,1.62,4.33,3.36,6.5,5,1.07.85,2.19,1.66,3.22,2.56l3.09,2.68c4.25,3.45,8.07,7.32,12,11.09,3.64,4,7.54,7.89,10.89,12.21,3.63,4.12,6.62,8.71,9.95,13.11l4.45,7c.73,1.18,1.51,2.32,2.2,3.52l2.07,3.61,1,1.8,1,1.84,2,3.69c1.22,2.51,2.49,5,3.63,7.55,2.4,5.06,4.44,10.28,6.44,15.56s3.67,10.69,5.27,16.16a292.91,292.91,0,0,1,7.3,33.69,184.84,184.84,0,0,0-.18-35C820.35,540.3,819.42,534.47,818.34,528.63Z" style="fill: url(#ef5aeb84-07c3-4e79-bc01-acfd75e5b5a7)"/>
    <path d="M775.06,294c-2.07-2.09-4.2-4.13-6.32-6.2l-1.59-1.54c-.54-.51-1.12-1-1.68-1.46l-3.38-2.88c-1.14-1-2.26-1.94-3.43-2.84l-3.61-2.64-3.62-2.63c-1.21-.87-2.5-1.62-3.75-2.43a157,157,0,0,0-32-15.64,257,257,0,0,0-33.45-9.18c-11.13-2.29-22.15-4.14-33-6s-21.64-3.53-32.33-5.46-21.32-4.08-32-6.29l-8-1.73c-2.65-.58-5.29-1.22-7.94-1.83-5.3-1.22-10.58-2.5-15.87-3.78s-10.54-2.72-15.83-4.05-10.54-2.77-15.78-4.28c-21-5.84-41.93-12.32-62.79-19.23-5.22-1.73-10.46-3.42-15.64-5.26L435.28,186l-3.92-1.34-3.9-1.38-15.64-5.52c-5.21-1.87-10.43-3.76-15.72-5.52,4.62,3.09,9.32,6.06,14,9s9.53,5.73,14.33,8.54q14.46,8.34,29.41,15.85a633.71,633.71,0,0,0,61.34,26.86c5.23,2,10.52,3.8,15.78,5.72,2.64.92,5.31,1.77,8,2.65s5.31,1.78,8,2.59c5.35,1.64,10.68,3.39,16.09,4.85,2.7.76,5.39,1.54,8.1,2.27l8.13,2.16c10.86,2.81,21.81,5.29,32.8,7.54s22,4.08,32.92,5.91,21.67,3.48,32.19,5.51a255.28,255.28,0,0,1,30.62,7.37A149.25,149.25,0,0,1,735.86,291c1.1.62,2.25,1.18,3.33,1.85l3.21,2,3.23,2c1.06.71,2.06,1.5,3.11,2.23l3.12,2.23c.51.38,1,.73,1.55,1.13l1.49,1.23c2,1.64,4,3.25,5.94,4.92,15.43,13.69,28.24,30.69,38.36,49.6a261.83,261.83,0,0,1,13.4,29.58c3.92,10.21,7.31,20.7,10.5,31.37a222,222,0,0,0-3.52-33.32,209.24,209.24,0,0,0-8.69-32.79A169.35,169.35,0,0,0,775.06,294Z" style="fill: url(#31ae5c66-55c1-4558-9cc8-d9c90666a709)"/>
    <path d="M875.15,274.47a170.09,170.09,0,0,0-3.49-19.87l-1.26-4.91c-.42-1.65-1-3.25-1.46-4.88-.93-3.27-2.18-6.44-3.31-9.67a152.24,152.24,0,0,0-20-36,142.46,142.46,0,0,0-13.79-15.68A152.08,152.08,0,0,0,816,169.79a182.72,182.72,0,0,0-17.35-11.49c-2.88-1.68-5.81-3.28-8.76-4.82l-.6-.53-4-3.37c-1.33-1.12-2.65-2.26-4-3.32-2.72-2.17-5.46-4.31-8.26-6.35s-5.61-4.07-8.45-6.07a377.23,377.23,0,0,0-35.3-21.53q-9-4.89-18.29-9.35t-18.49-8.68c-6.19-2.79-12.41-5.43-18.62-8.08S661.56,81,655.14,78.49l-9.56-3.7-4.77-1.85L638.42,72,636,71.19l-19.39-6.62c-6.51-2-13.09-3.88-19.63-5.83l-4.91-1.44-5-1.26c-3.31-.85-6.62-1.65-9.93-2.47l-5-1.23c-1.65-.41-3.3-.82-5-1.15l-10-2.11-10-2.06-10.08-1.71C530.44,44.19,523.74,43,517,42.2l-10.12-1.28c-1.69-.2-3.37-.46-5.07-.61l-5.07-.48a591.59,591.59,0,0,0-81.25-2.5c-6.76.32-13.51.54-20.24,1.13l-10.09.79c-3.37.29-6.72.69-10.07,1-13.13,1.36-26.19,3.35-39.14,5.76-.35-.8-.69-1.61-1.05-2.41L328.29,29c-4.37-9.76-9.07-19.38-13.7-29l-1,.43,5.56,15L322,23l2.76,7.52,5.58,15c1.8,5,3.66,10,5.5,15s3.68,10,5.44,15.05l5.43,15,10.62,30.17,5.19,15.13,2.59,7.56,2.53,7.59c3.4,10.1,6.86,20.18,10.08,30.34l4.94,15.21,4.85,15.23,4.93,15.21,4.82,15.25c12.93,40.62,25.76,81.38,36,122.83l1.95,7.76c.65,2.59,1.22,5.2,1.82,7.8,1.2,5.2,2.41,10.4,3.56,15.61s2.34,10.41,3.4,15.64,2.15,10.46,3.19,15.69,2.14,10.46,3.06,15.71L453,459.14c1.85,10.51,3.71,21,5.25,31.58L463,522.36l2.13,15.86,2.19,15.84c.77,5.27,1.4,10.57,2.07,15.86l2,15.86c.65,5.29,1.38,10.57,2,15.86l1.79,15.89c4.77,42.36,8.45,84.82,11.37,127.34.77,10.62,1.33,21.26,2.07,31.89.39,5.32.64,10.64.91,16l.87,16,.44,8,.32,8,.65,16c.53,10.65.76,21.31,1.12,32,.56,18.35.91,36.72,1.17,55.1-.68-.84-1.35-1.67-2-2.48.69,3.06,1.41,6.09,2.14,9.1l0,2.27.1,8,0,8,.09,16,0,16.66c-.76-2.35-1.55-4.7-2.42-7-.46,2.7-.84,5.4-1.17,8.09l0-.61c.25-5.53.45-11.08.49-16.66s0-11.17-.35-16.82c-2.48,5.09-4.65,10.25-6.72,15.42s-4,10.38-5.89,15.6c-2.91,8.17-5.56,16.39-8.08,24.64q4-15.24,7.44-30.65c2.53-11.64,4.88-23.32,6.83-35.14.95-5.91,1.87-11.83,2.62-17.81s1.43-12,1.8-18.06c-3.13,5.24-6,10.57-8.69,15.94s-5.34,10.76-7.88,16.18c-1.08,2.31-2.12,4.62-3.16,6.94,3.55-12.31,6.93-24.68,9.93-37.2,1.52-6.4,3-12.81,4.3-19.28s2.56-13,3.5-19.58c-3.64,5.6-7,11.3-10.25,17-2.37,4.16-4.66,8.36-6.91,12.56a391.46,391.46,0,0,0,11.11-42.12c1.41-7.53,2.84-15,3.79-22.64,1.11-7.56,1.78-15.2,2.26-22.84-3.29,6.95-6.13,14-9.2,20.91l-9,20.75c-6.06,13.74-12.18,27.32-18.63,40.68l-2.39,5c-.8,1.67-1.66,3.31-2.49,5s-1.63,3.31-2.45,5-1.68,3.29-2.52,4.93c-1.68,3.28-3.38,6.55-5.13,9.79s-3.45,6.49-5.24,9.69c-7.1,12.86-14.55,25.46-22.55,37.67-2,3.07-4,6.11-6.12,9.28s-4.19,6.38-6.25,9.64C391,996,387,1002.7,383.34,1009.55c-1.82,3.44-3.67,6.87-5.36,10.38-.85,1.75-1.72,3.5-2.55,5.26l-2.39,5.33c-1.63,3.54-3.07,7.16-4.56,10.75s-2.75,7.29-4.08,10.94a275,275,0,0,0-11.49,45c-1.2,7.63-2.12,15.28-2.6,23a190.13,190.13,0,0,0-.21,23c2.45-7.28,4.82-14.47,7.31-21.58s5.09-14.12,7.83-21c5.53-13.83,11.42-27.34,18-40.44,3.33-6.54,6.72-13,10.3-19.38s7.35-12.61,11.16-18.84,7.85-12.31,12-18.41,8.38-12.18,12.65-18.77c.86-1.31,1.7-2.64,2.54-4q-6.17,15.11-11.92,30.36c-9.17,24.42-17.56,49.12-24.91,74.22-3.63,12.57-7.09,25.2-10.15,38-1.51,6.4-3,12.81-4.29,19.28s-2.55,13-3.48,19.59c3.65-5.59,7-11.3,10.27-17s6.39-11.53,9.46-17.34c6.11-11.64,11.82-23.42,17.35-35.27q7.11-15.36,13.64-30.92-6.36,22.59-11.5,45.55c-2.53,11.63-4.88,23.32-6.82,35.13-.95,5.92-1.87,11.84-2.61,17.82s-1.43,12-1.79,18.07c3.14-5.24,6-10.57,8.71-15.93s5.35-10.77,7.9-16.19c5.06-10.85,9.7-21.83,14.17-32.86,8.85-22.1,16.65-44.52,23.64-67.19,1-3.2,2-6.41,2.91-9.63q-5.39,21-9.58,42.28c-4.25,21.5-7.69,43.16-10,65-1.13,11-2.08,21.93-2.6,33-.24,5.54-.44,11.08-.48,16.66s0,11.17.37,16.83c2.49-5.09,4.67-10.25,6.74-15.42s4-10.38,5.9-15.59c3.73-10.44,7-21,10.15-31.51,6.15-21.12,11.22-42.46,15.46-64s7.66-43.17,10-65c0-.4.07-.79.11-1.19-.37,8.82-.51,17.62-.52,26.4.06,21.76,1.24,43.42,3.21,65s4.82,43.09,8.75,64.49c2,10.7,4.21,21.38,6.83,32,1.33,5.32,2.71,10.64,4.25,15.94s3.16,10.59,5.11,15.85c.95-5.53,1.58-11,2.11-16.52s.92-11,1.25-16.45c.63-10.94.82-21.84.83-32.73-.07-21.76-1.24-43.42-3.25-65s-4.85-43.09-8.78-64.49c-2-10.7-4.21-21.38-6.83-32-1.33-5.32-2.7-10.64-4.24-15.94l-.78-2.66c.62-7.56,1.22-15.12,1.71-22.68l.93-15.53c3.37,12.75,6.88,25.29,10.12,37.87,5.78,21.55,11.17,43,16.26,64.51s9.54,43.17,14,65c2.25,10.93,4.34,21.93,6.55,33l3.38,16.71c1.16,5.6,2.34,11.22,3.75,16.89a171.27,171.27,0,0,0,3.5-17c.92-5.71,1.59-11.45,2.13-17.2a305.46,305.46,0,0,0,1-34.63,347.49,347.49,0,0,0-6.22-55.4q4.8,16.69,9.4,33.55c3.14,11.29,6.14,22.67,9.26,34.11l4.76,17.24c1.62,5.77,3.24,11.56,5.13,17.38,1-6,1.65-12.06,2.08-18.1s.65-12.1.71-18.15a340.22,340.22,0,0,0-1.81-36.24,356.56,356.56,0,0,0-5.62-35.87c-.32-1.56-.68-3.12-1-4.68q2,7.53,3.89,15.11c3.3,13,6.27,26.23,9.16,39.54.73,3.32,1.46,6.66,2.14,10l1.08,5,1,5c1.44,6.73,2.76,13.5,4.36,20.32,1.31-6.87,2.25-13.78,2.88-20.72s1-13.89,1.22-20.87a340,340,0,0,0-1.71-41.83,370.63,370.63,0,0,0-6.68-41.45c-.22-1-.45-2-.68-3l1.91,5.48c1.28,3.5,2.34,7.07,3.55,10.61s2.34,7.09,3.48,10.65c4.58,14.24,8.86,28.65,13.08,43.18l1.61,5.45c.52,1.83,1,3.66,1.56,5.48l3.17,11c2.13,7.33,4.23,14.69,6.61,22,.5-7.71.66-15.41.56-23.1,0-3.85-.14-7.69-.29-11.54s-.38-7.69-.63-11.53a414.34,414.34,0,0,0-5.84-45.92c-1.37-7.61-3-15.18-4.85-22.71-.94-3.76-1.84-7.53-2.87-11.27S612.05,999.68,611,996a430.56,430.56,0,0,0-16-43.76l-4.44-10,1.1,2c3.66,6.56,7.3,13.13,11,19.67l5.54,9.82,5.6,9.81c7.5,13.06,15.07,26.11,22.89,39.08,3.94,6.47,7.86,13,11.92,19.4s8.15,12.87,12.52,19.2c-1.71-7.5-3.74-14.87-5.91-22.19s-4.5-14.57-6.94-21.79c-4.9-14.42-10.33-28.64-16.12-42.7a856.92,856.92,0,0,0-39.37-82.2q-10.9-20-22.79-39.47-5.94-9.74-12.18-19.27c-2.07-3.19-4.14-6.37-6.26-9.53l-6.42-9.42c-8.67-12.5-17.65-24.78-27.09-36.74-4.74-6-9.54-11.88-14.52-17.67-1.5-1.76-3-3.51-4.56-5.25-.18-3.63-.36-7.26-.61-10.89l-2.3-32q-.73-8.32-1.51-16.64c16.41,23.67,32.88,46.77,48.42,70.44,2.31,3.44,4.63,6.87,6.83,10.37s4.53,6.92,6.79,10.37c4.35,7,8.91,13.91,13.19,21,8.8,14,17.1,28.19,25.42,42.4q24.51,42.91,46.42,87.43c7.34,14.85,14.38,29.88,21.41,45l10.47,22.82c3.49,7.64,7,15.31,10.63,23-.87-8.45-2.18-16.82-3.71-25.15s-3.34-16.62-5.33-24.86c-4-16.46-8.95-32.73-14.62-48.73-1.42-4-2.91-8-4.38-12s-3.1-7.91-4.75-11.83c-3.23-7.85-6.51-15.7-10.18-23.37-1.79-3.86-3.57-7.72-5.44-11.54l-5.78-11.37L627,853.73l-3.07-5.59L617.7,837c-8.6-14.67-17.56-29.15-27.4-43l-3.65-5.23c-1.23-1.73-2.51-3.42-3.77-5.13-2.51-3.43-5.09-6.81-7.64-10.2-5.25-6.68-10.47-13.37-16-19.81s-11.14-12.81-16.87-19.06-11.69-12.28-17.8-18.15c-3-2.95-6.08-5.9-9.23-8.73s-6.21-5.75-9.47-8.47-6.44-5.5-9.72-8.18c-.73-.59-1.47-1.17-2.21-1.75l-.87-9.21c-.48-5.33-1.12-10.65-1.71-16l-1.8-16c-.58-5.43-1.25-10.85-1.95-16.27,4.27,5.08,8.61,10.07,13,15,6.11,7.24,12.34,14.31,18.54,21.4l9.21,10.7c3,3.58,6.24,7,9.23,10.63,6,7.21,12.28,14.17,18.24,21.39s12.11,14.25,18,21.49l8.92,10.78,8.77,10.88c1.46,1.81,2.9,3.64,4.39,5.43l4.3,5.48,8.61,11c5.56,7.42,11.35,14.68,16.68,22.24,5.58,7.39,10.8,15,16,22.57l7.68,11.44c2.44,3.86,4.8,7.77,7.29,11.6,2.34,3.9,4.59,7.82,6.89,11.73,1,2,2,4,3.12,5.94s2.19,3.94,3,5.92l2.79,6c.92,2,1.69,4.17,2.57,6.24l1.3,3.13c.43,1.05.79,2.12,1.19,3.18l2.35,6.38a320,320,0,0,1,13.5,53.18q1.13,6.83,1.9,13.71c.25,2.28.49,4.59.64,6.84l.15,3.41L696,973c.18,9.32-.18,18.72-.92,28.23a156.56,156.56,0,0,0,8.14-27.56l.69-3.57.31-1.87.15-.93.07-.38.06-.46c.33-2.47.57-4.87.79-7.3.42-4.85.56-9.69.66-14.54a244,244,0,0,0-6.61-58l-1.86-7.12c-.32-1.18-.6-2.38-1-3.55l-1.07-3.53-1.1-3.53c-.4-1.17-.69-2.34-1.17-3.52l-2.67-7.09c-.85-2.41-1.9-4.62-2.9-6.9s-2-4.51-3.07-6.77c-2.23-4.36-4.45-8.74-6.73-13.06s-4.83-8.44-7.27-12.64l-7.68-12.31c-4.64-6.91-9.3-13.81-14.16-20.53q3.93,3.21,7.82,6.32c8,6.27,15.71,12.41,22.76,18.79A128.08,128.08,0,0,1,698,831.68a95.16,95.16,0,0,1,7.09,11.58l1.54,3,1.42,3.12c.88,2.14,1.69,4.36,2.55,6.54,6.48,17.64,9.31,36.94,8.86,56.61a234.58,234.58,0,0,1-2.57,29.72c-1.46,10-3.5,19.9-5.76,29.91a198.17,198.17,0,0,0,12.78-28.12,184.16,184.16,0,0,0,8.26-30.22,148,148,0,0,0-2-64c-.76-2.63-1.47-5.26-2.29-7.9l-1.39-4-1.54-3.92a113.23,113.23,0,0,0-7.74-15,136.2,136.2,0,0,0-20.84-25.77c-7.67-7.63-15.78-14.29-23.54-20.84s-15.44-12.73-22.45-19.3c-3.54-3.26-6.92-6.59-10.14-10-1.56-1.65-3.33-3.64-5-5.49S631.76,733.9,630,732l-10.29-11.18c-3.42-3.74-6.82-7.5-10.29-11.19-6.89-7.43-13.73-14.91-20.69-22.29l-10.37-11.12L568,665.18q-20.94-22.11-42.23-44c-7.14-7.26-14.29-14.52-21.55-21.69s-14.54-14.34-22.07-21.31c5.29,8.79,10.84,17.38,16.51,25.89S510.07,621,516,629.35c11.79,16.66,24,33,36.53,49.1l4.83,6.15c-2.54-2.33-5.08-4.65-7.65-6.94-7.11-6.32-14.44-12.4-21.71-18.51q-11.13-8.94-22.48-17.55c-6.05-4.41-12.13-8.75-18.3-13q-.82-6.18-1.63-12.37l-2.1-15.92c-.73-5.3-1.56-10.59-2.36-15.88l-2.41-15.87-1.22-7.94c-.42-2.64-.92-5.27-1.37-7.91l-2.78-15.81-2.86-15.8-.72-3.61c1.5,2.33,3,4.66,4.54,7,3.18,4.67,6.34,9.37,9.61,14s6.57,9.21,9.94,13.76,6.78,9.06,10.26,13.52q20.85,26.82,43.9,51.9,11.5,12.54,23.53,24.59c8,8.08,16.21,15.9,24.5,23.65s16.84,15.24,25.35,22.7,17.23,14.62,25.78,21.85,17.18,14.28,25.41,21.54,16.24,14.55,23.58,22.22c3.69,3.82,7.15,7.78,10.42,11.84a152,152,0,0,1,9.13,12.59,136.93,136.93,0,0,1,13.73,27.86,156.55,156.55,0,0,1,7.33,29.21c-.87,7.48-2.13,15-3.64,22.49q2.7-5.38,5-11a190,190,0,0,1,.59,22.29,239.78,239.78,0,0,1-3.37,32.83c-1.86,11-4.4,21.9-7.23,32.87a215.34,215.34,0,0,0,14.23-31,196.86,196.86,0,0,0,9.08-33.35c.59-2.86.9-5.75,1.3-8.65.17-1.45.42-2.89.53-4.35l.37-4.38c.11-1.46.26-2.93.33-4.4l.1-4.41.09-4.42c0-1.48-.08-3-.12-4.43-.1-3-.13-5.94-.51-8.89l-.44-4.44-.22-2.22-.36-2.21-.71-4.42-.36-2.21-.18-1.11-.24-1.09c-.5-2.23-1-4.46-1.55-6.69q.42-4,.68-8c.11-1.4.11-2.8.17-4.21s.1-2.82.07-4.22l0-4.24c0-1.41-.13-2.83-.2-4.25-.15-2.83-.25-5.68-.67-8.51l-.54-4.27c-.17-1.43-.34-2.86-.65-4.26-.57-2.83-1.09-5.67-1.73-8.49l-2.36-8.34c-.36-1.41-.89-2.74-1.37-4.1l-1.48-4.06c-.5-1.35-1-2.73-1.51-4.06l-1.76-3.91-1.77-3.92c-.6-1.3-1.16-2.63-1.85-3.86l-4-7.55c-1.28-2.56-2.83-4.89-4.28-7.32s-2.92-4.83-4.42-7.2l-4.69-7-2.37-3.46c-.78-1.17-1.61-2.28-2.44-3.39l-5-6.67c-1.67-2.21-3.3-4.48-5-6.6-3.45-4.31-6.94-8.61-10.47-12.83L681,645.34c-3.65-4.1-7.4-8.07-11.1-12.11s-7.45-8-11.24-11.91-7.6-7.84-11.45-11.68-7.71-7.69-11.6-11.49-7.82-7.55-11.77-11.29S616,579.37,612,575.68c-8-7.37-16-14.72-24.12-21.89-4.07-3.58-8.12-7.2-12.23-10.73l-12.39-10.58c-16.61-14-33.51-27.62-50.83-40.72-8.67-6.54-17.41-13-26.29-19.26s-17.84-12.43-27-18.29c7.33,8.07,14.83,15.92,22.32,23.75l11.28,11.7L504,501.3q22.66,23.19,45.42,46.14l45.45,45.91c7.47,7.73,15.2,15.22,22.63,23,3.74,3.85,7.53,7.64,11.29,11.47s7.42,7.71,11.14,11.57l5.6,5.75c1.87,1.91,3.66,3.88,5.5,5.81,3.64,3.89,7.33,7.76,10.93,11.68l10.76,11.75c3.54,3.95,6.91,8,10.45,11.95,1.78,2,3.41,4,5.09,6l5,6.08c1.72,2,3.19,4.13,4.83,6.17l4.8,6.19c1.53,2.09,3,4.22,4.49,6.33s3.05,4.21,4.36,6.39l4.16,6.47c.72,1.07,1.3,2.2,1.93,3.3l1.85,3.33,1.87,3.34c.58,1.12,1.1,2.27,1.66,3.4l1.65,3.41a35.53,35.53,0,0,1,1.57,3.45l2.55,6.35c-1.12-1.67-2.27-3.32-3.45-4.93q-5.32-7.3-11.21-14a322.83,322.83,0,0,0-24.72-24.77c-8.54-7.71-17.2-15-25.81-22.3l-25.88-21.47c-8.62-7.09-17.08-14.31-25.56-21.51S595.56,633,587.2,625.64l-12.44-11.15-6.21-5.59-6.17-5.65c-16.49-15-32.68-30.43-48.84-46-8.09-7.75-16.09-15.63-24.17-23.46L477.28,522q-4.11-4-8.26-8l-4.83-24.32c-2-10.51-4.41-20.94-6.6-31.4l-3.35-15.69c-1-5.24-2.27-10.45-3.42-15.67-4.57-20.88-9.34-41.72-14.13-62.56q-1.63-7.11-3.28-14.23c8,6.61,16.21,13,24.38,19.42,9,7,18,13.89,27,20.78q27.08,20.58,54.38,40.73c36.34,26.91,73.06,53.39,109.3,80L662,521l3.37,2.51,3.32,2.56,6.64,5.11c8.9,6.74,17.55,13.72,26.05,20.78,2.18,1.73,4.21,3.56,6.29,5.36l6.23,5.42c2,1.85,4,3.74,6,5.58l3,2.78c1,.94,1.93,1.91,2.89,2.87l5.76,5.76,5.44,6c1.88,2,3.56,4,5.28,6.11s3.51,4.09,5,6.29a196.05,196.05,0,0,1,17.55,27.19c2.64,4.78,5.09,9.69,7.38,14.69s4.44,10.09,6.49,15.23,3.89,10.38,5.59,15.68S787.55,681.62,789,687c2.88,10.85,5.15,21.93,7.09,33.18a224.45,224.45,0,0,0-15.81-102.12l-1.64-4.1c-.57-1.36-1.23-2.69-1.85-4l-1.88-4c-.62-1.35-1.25-2.69-2-4l-4.23-7.87c-1.5-2.57-3.11-5.07-4.68-7.61a213.11,213.11,0,0,0-21.66-28.23c-1-1.1-1.94-2.24-2.94-3.31l-3-3.18c-2-2.13-4.08-4.22-6.13-6.32l-6.32-6c-2.12-2-4.21-4.06-6.38-6s-4.32-3.88-6.5-5.78l-3.27-2.87L704.47,522c-4.43-3.67-8.81-7.45-13.32-11-9-7.17-18.12-14.06-27.26-20.92-36.83-27-74.65-52.07-113.34-76-19.37-11.88-38.94-23.44-58.82-34.49-10-5.51-19.93-11-30-16.2-9.4-4.91-18.87-9.7-28.49-14.25-8.45-36.63-17-73.29-27.2-109.52l-4.44-15.43c-1-3.57-2.13-7.12-3.23-10.67q6,4.4,12,8.71c2.57,1.82,5.12,3.65,7.71,5.43l7.8,5.27,7.82,5.25q3.91,2.63,7.89,5.15l15.92,10.08q32.11,19.75,65.65,37.18a951.11,951.11,0,0,0,139.26,58.95l9,2.93,9.06,2.81c6,1.89,12,3.65,17.89,5.45a335.13,335.13,0,0,1,34,12,180.89,180.89,0,0,1,30.91,16.46c2.35,1.68,4.73,3.33,7.07,5l6.73,5.45,6.41,5.84,6,6.28c1.93,2.16,3.69,4.47,5.59,6.67a40.75,40.75,0,0,1,2.65,3.47l2.55,3.55,1.28,1.77c.41.61.78,1.24,1.17,1.86L805,432.9c1.61,2.46,2.91,5.09,4.33,7.68a163.78,163.78,0,0,1,12.92,33.3,220,220,0,0,1,6.5,36,352.38,352.38,0,0,1,1.38,37.32c6-24.39,8.13-50.14,4.65-75.85-.45-3.21-.9-6.43-1.61-9.61l-1-4.79c-.3-1.61-.8-3.17-1.19-4.76l-1.26-4.75c-.2-.8-.45-1.58-.72-2.35l-.78-2.34-1.58-4.68-.4-1.17-.46-1.15-.94-2.29c-1.28-3.05-2.42-6.18-4-9.1l-2.23-4.46c-.38-.74-.74-1.5-1.14-2.22l-1.27-2.16-2.55-4.3A47.89,47.89,0,0,0,811,407l-2.87-4.12-1.45-2.05c-.49-.68-1-1.38-1.51-2l-6.4-7.77-6.92-7.33c-2.44-2.3-5-4.53-7.43-6.8s-5.22-4.21-7.83-6.32a186.65,186.65,0,0,0-34.23-20.34,328.49,328.49,0,0,0-36.3-13.95l-17.91-5.63-8.82-2.82-8.78-2.92c-46.89-15.46-93.07-33.29-138.75-52.71-22.86-9.66-45.6-19.74-68.34-30l-34.09-15.54C418.9,222,408.54,217.11,398,212.48l-1.11-3.58q-2.37-7.67-4.83-15.31l-5.11-15.22c-3.37-10.17-7-20.25-10.5-30.35-1.76-5.05-3.64-10.06-5.52-15.08l-2.27-6.09q15.23,6.42,30.71,12.07c10.83,4,21.75,7.76,32.71,11.42Q465,161.19,498.48,170c22.32,6,44.85,11.16,67.45,15.91,11.3,2.38,22.63,4.52,33.94,6.7l33.88,6.16,16.84,3c5.56,1.06,11.15,2.1,16.67,3.21s11.07,2.16,16.47,3.46c2.71.64,5.46,1.21,8.14,1.9s5.35,1.4,8,2.08A249.22,249.22,0,0,1,731,222.87l3.79,1.52c1.25.55,2.46,1.15,3.7,1.72l7.38,3.49,7.23,3.85c1.19.67,2.44,1.24,3.6,2l3.52,2.14c2.34,1.44,4.72,2.82,7,4.3l6.92,4.58,6.75,4.84c2.25,1.62,4.41,3.36,6.63,5s4.33,3.49,6.49,5.25,4.23,3.62,6.34,5.46c1,.92,2.12,1.83,3.15,2.77l3.06,2.87,3.07,2.88,3,3a326.72,326.72,0,0,1,22.79,25.13c7.25,8.8,14,18.07,20.66,27.54a236.57,236.57,0,0,0-14.65-31.6,248.92,248.92,0,0,0-19.17-29.47l-2.68-3.52-2.8-3.43L814,259.76c-1-1.13-1.94-2.22-2.92-3.34-1.94-2.24-3.91-4.45-6-6.56s-4.07-4.33-6.24-6.36l-3.21-3.1c-1.06-1-2.13-2.07-3.26-3-2.24-2-4.47-4-6.73-5.89l-7-5.65c-2.33-1.86-4.82-3.55-7.23-5.33l-3.65-2.63c-1.2-.91-2.52-1.65-3.77-2.49l-7.63-4.87c-2.6-1.53-5.28-2.94-7.92-4.41-1.33-.72-2.65-1.48-4-2.17l-4.09-2c-10.84-5.47-22.24-9.49-33.6-13.16-2.85-.87-5.7-1.74-8.56-2.57s-5.72-1.49-8.58-2.24c-5.73-1.55-11.44-2.76-17.16-4.1s-11.41-2.32-17.12-3.48l-17-3.19-34-5.81-33.86-5.64-33.81-5.72-33.79-5.9L435.19,138,401.24,132c-10.88-1.9-21.77-3.83-32.75-5.53l-3.18-8.53q-5.42-14.15-11.05-28.2c12,1.87,23.91,3.44,35.83,5.19,6.49.94,13,1.77,19.45,2.76L429,100.42q38.82,5.58,77.41,11.74,77.21,12.28,153.51,28.14c12.72,2.62,25.46,5.34,38.06,8.25s25.11,5.88,37.38,9.31a351.58,351.58,0,0,1,35.92,11.95q6.06,2.43,11.94,5.2l.36.31,3.71,3.07,3.63,3.16c2.46,2.07,4.75,4.31,7.11,6.49,1.2,1.08,2.28,2.25,3.43,3.37s2.29,2.25,3.38,3.43c2.15,2.38,4.45,4.64,6.51,7.1l3.17,3.64,3,3.75c2.07,2.47,3.9,5.12,5.86,7.68,1,1.27,1.86,2.63,2.79,4l2.74,4,2.57,4.11c.86,1.37,1.73,2.74,2.52,4.15,1.61,2.82,3.3,5.6,4.75,8.52l2.26,4.33,2.13,4.41c2.81,5.91,5.27,12,7.54,18.19a250.58,250.58,0,0,1,10.43,38.53,184,184,0,0,0-3.44-40.45,186.87,186.87,0,0,0-5-19.93c-.53-1.64-1-3.28-1.6-4.91l-1.79-4.85c-1.13-3.27-2.53-6.42-3.85-9.62-.47-1.07-.95-2.12-1.44-3.18.06.08.12.15.17.23l2.68,3.83,2.49,4,1.25,2,1.15,2,2.31,4.11a172.33,172.33,0,0,1,8,17.21q3.46,8.88,6.08,18.19a239.57,239.57,0,0,1,7.07,38.37A176.6,176.6,0,0,0,875.15,274.47ZM540.59,954.64c-11-20.35-23.74-39.83-39.36-57.1.21-8.34.44-16.69.42-25q.08-7.63.08-15.27l1.32,2.73q4.49,9.28,8.87,18.5c5.81,12.32,11.49,24.58,16.83,36.94,10.74,24.67,20.59,49.5,29.09,74.82,1.26,3.72,2.49,7.46,3.71,11.19A371,371,0,0,0,540.59,954.64ZM501.7,848.39q-.07-16-.43-32.06c.6,1.21,1.18,2.43,1.79,3.63l10.12,20.45c6.75,13.58,13.48,27.08,20.05,40.62,1.68,3.36,3.3,6.76,4.92,10.15l2.46,5.09A300.32,300.32,0,0,0,501.7,848.39Zm22.91,127.92c-1.29-2.59-2.56-5.18-3.92-7.72s-2.73-5.09-4.16-7.6-2.9-5-4.38-7.47-3-4.92-4.61-7.33-3.13-4.84-4.85-7.18q-1.35-1.92-2.73-3.81c.42-10.2.94-20.4,1.1-30.6,0-.93.05-1.86.07-2.8,1.14,3.58,2.33,7.13,3.51,10.66l5.77,16.92c3.85,11.22,7.75,22.32,11.49,33.43q4.71,13.77,9.23,27.51c-.9-2.08-1.81-4.15-2.78-6.2Q526.56,980.18,524.61,976.31ZM507.27,784.68c6.64,13.6,13.48,27.05,20.37,40.45q13.79,26.65,27.94,53-2.3-3.61-4.65-7.2c-8.47-12.85-17.44-25.35-27-37.37-4.8-6-9.74-11.9-14.86-17.64-2.57-2.86-5.15-5.71-7.8-8.5l-.17-.18-.44-15c-.18-5.35-.34-10.7-.63-16.05l-.36-7.39Q503.41,776.76,507.27,784.68Zm1.58-692.75C457.34,87.61,405.59,86.16,354,89.05q-6.19-15.4-12.76-30.67c-1.75-4.05-3.48-8.1-5.24-12.15,13.16.39,26.24.61,39.29,1.27l10,.46,10,.63c3.33.24,6.65.33,10,.64l9.94.81C441.69,52.23,468,55.47,494,60l4.88.8c1.63.26,3.24.62,4.86.93l9.7,1.9,4.85.94,2.42.46,2.41.54,9.64,2.14,9.63,2.17,9.56,2.42,9.56,2.39c1.6.38,3.17.84,4.75,1.3L571,77.37a677.28,677.28,0,0,1,74.51,25.25c6.08,2.3,12.29,4.88,18.42,7.42s12.23,5.12,18.28,7.75c1.22.51,2.43,1,3.65,1.57q-10.29-2.31-20.61-4.5A1308.93,1308.93,0,0,0,508.85,91.93Z" style="fill: url(#68d7c727-8f7f-427a-b4e1-316ba47303ce)"/>
  </g>
</svg>
